<svg xmlns="http://www.w3.org/2000/svg" xmlns:xlink="http://www.w3.org/1999/xlink" width="916" height="421" contentScriptType="application/ecmascript" contentStyleType="text/css" style="width:916px;height:421px" preserveAspectRatio="none" version="1.1" viewBox="0 0 916 421" zoomAndPan="magnify"><defs><filter id="fs7o3f8" width="300%" height="300%" x="-1" y="-1"><feGaussianBlur result="blurOut" stdDeviation="2"/><feColorMatrix in="blurOut" result="blurOut2" type="matrix" values="0 0 0 0 0 0 0 0 0 0 0 0 0 0 0 0 0 0 .4 0"/><feOffset dx="4" dy="4" in="blurOut2" result="blurOut3"/><feBlend in="SourceGraphic" in2="blurOut3" mode="normal"/></filter></defs><g><path fill="none" d="M53,39 L52.0441,39 L53.1399,49.0711 L53.723,59.1421 L53.091,69.2132 L53.7986,79.2842 L52.9532,89.3553 L52.1675,99.4264 L52.2057,109.4974 L53.6365,119.5685 L53.5699,129.6395 L53.7728,139.7106 L52.5991,149.7817 L53.7045,159.8527 L52.7952,169.9238 L52.4126,179.9948 L52.2831,190.0659 L52.5125,200.1369 L52.8447,210.208 L53.0526,220.2791 L53.6558,230.3501 L53.5644,240.4212 L52.8394,250.4922 L52.67,260.5633 L52.246,270.6344 L52.7794,280.7054 L52.3492,290.7765 L53.6738,300.8475 L53.2907,310.9186 L52.5445,320.9897 L53.7509,331.0607 L52.9059,341.1318 L52.1479,351.2028 L53.8965,361.2739 L52.6924,371.345 L53,381.416" style="stroke:#c85d0a;stroke-width:1;stroke-dasharray:5,5"/><path fill="none" d="M293,39 L292.066,39 L292.9164,49.0711 L293.6858,59.1421 L292.6589,69.2132 L292.8402,79.2842 L292.1859,89.3553 L292.6078,99.4264 L293.5376,109.4974 L292.1501,119.5685 L293.5792,129.6395 L292.715,139.7106 L293.1581,149.7817 L293.751,159.8527 L293.6793,169.9238 L293.4332,179.9948 L293.0605,190.0659 L293.9208,200.1369 L293.0466,210.208 L293.2065,220.2791 L293.1987,230.3501 L293.1681,240.4212 L293.335,250.4922 L293.68,260.5633 L292.9348,270.6344 L292.773,280.7054 L293.0067,290.7765 L292.8083,300.8475 L293.5159,310.9186 L292.5414,320.9897 L293.8225,331.0607 L292.4346,341.1318 L292.2418,351.2028 L292.4084,361.2739 L292.1499,371.345 L293,381.416" style="stroke:#c85d0a;stroke-width:1;stroke-dasharray:5,5"/><path fill="none" d="M479,39 L478.7404,39 L478.7459,49.0711 L479.4708,59.1421 L479.1828,69.2132 L478.4967,79.2842 L479.2048,89.3553 L479.6596,99.4264 L478.41,109.4974 L478.2792,119.5685 L478.8773,129.6395 L479.5817,139.7106 L479.0934,149.7817 L479.7156,159.8527 L479.1451,169.9238 L479.0649,179.9948 L479.1353,190.0659 L479.4369,200.1369 L478.1861,210.208 L478.6348,220.2791 L479.5146,230.3501 L479.6907,240.4212 L478.5579,250.4922 L478.5329,260.5633 L479.4644,270.6344 L478.5475,280.7054 L478.303,290.7765 L478.9533,300.8475 L478.7383,310.9186 L479.296,320.9897 L478.7083,331.0607 L478.9305,341.1318 L478.6801,351.2028 L478.9703,361.2739 L479.5616,371.345 L479,381.416" style="stroke:#c85d0a;stroke-width:1;stroke-dasharray:5,5"/><path fill="none" d="M620,39 L620.7559,39 L620.3645,49.0711 L620.9907,59.1421 L620.6433,69.2132 L620.9307,79.2842 L620.8141,89.3553 L619.6229,99.4264 L619.2752,109.4974 L619.4794,119.5685 L619.2289,129.6395 L620.3757,139.7106 L620.021,149.7817 L620.9577,159.8527 L620.2774,169.9238 L620.5518,179.9948 L620.0914,190.0659 L620.6784,200.1369 L620.8031,210.208 L619.9582,220.2791 L620.6528,230.3501 L620.5624,240.4212 L619.7878,250.4922 L619.2551,260.5633 L620.0729,270.6344 L620.5875,280.7054 L619.0938,290.7765 L620.5837,300.8475 L620.159,310.9186 L620.0673,320.9897 L620.3702,331.0607 L619.9653,341.1318 L620.6519,351.2028 L620.9317,361.2739 L620.5618,371.345 L620,381.416" style="stroke:#c85d0a;stroke-width:1;stroke-dasharray:5,5"/><path fill="none" d="M846,39 L846.4982,39 L845.6355,49.0711 L845.8145,59.1421 L845.7009,69.2132 L846.6055,79.2842 L845.1082,89.3553 L845.0711,99.4264 L846.0858,109.4974 L846.4998,119.5685 L845.7294,129.6395 L846.8536,139.7106 L845.5713,149.7817 L846.6272,159.8527 L846.7181,169.9238 L845.0664,179.9948 L845.4934,190.0659 L846.1425,200.1369 L846.0234,210.208 L845.4052,220.2791 L845.7433,230.3501 L845.4438,240.4212 L846.2231,250.4922 L845.7496,260.5633 L845.6845,270.6344 L846.4507,280.7054 L845.1263,290.7765 L845.937,300.8475 L845.9695,310.9186 L845.6682,320.9897 L846.7667,331.0607 L845.3882,341.1318 L846.8676,351.2028 L846.1078,361.2739 L846.368,371.345 L846,381.416" style="stroke:#c85d0a;stroke-width:1;stroke-dasharray:5,5"/><polygon fill="#F18532" points="8 3 8 2.39 17.667 2.59 27.333 3.65 37 2.961 46.667 3.02 56.333 3.702 66 2.684 75.667 2.624 85.333 3.725 95 3 95.13 3 94.76 9.2 95.035 15.4 95.023 21.6 94.876 27.8 95 34 95 33.344 85.333 34.215 75.667 33.32 66 34.583 56.333 34.407 46.667 33.789 37 33.509 27.333 34.47 17.667 34.138 8 34 7.856 34 7.817 27.8 7.882 21.6 8.162 15.4 7.842 9.2 8 3" filter="url(#fs7o3f8)" style="stroke:#c85d0a;stroke-width:1.5"/><text x="15" y="23.09" fill="#FFF" font-family="Helvetica" font-size="17" lengthAdjust="spacingAndGlyphs" textLength="73">Controller</text><polygon fill="#F18532" points="8 380.416 8 380.255 17.667 380.968 27.333 379.702 37 380.135 46.667 380.602 56.333 380.203 66 380.772 75.667 379.712 85.333 380.077 95 380.416 94.949 380.416 94.835 386.616 94.828 392.816 95.037 399.016 95.049 405.216 95 411.416 95 411.035 85.333 412.131 75.667 411.74 66 410.834 56.333 410.832 46.667 412.03 37 410.816 27.333 411.831 17.667 411.635 8 411.416 8.181 411.416 7.78 405.216 7.896 399.016 8.197 392.816 8.119 386.616 8 380.416" filter="url(#fs7o3f8)" style="stroke:#c85d0a;stroke-width:1.5"/><text x="15" y="400.506" fill="#FFF" font-family="Helvetica" font-size="17" lengthAdjust="spacingAndGlyphs" textLength="73">Controller</text><polygon fill="#F18532" points="214 3 214 2.871 223.688 3.224 233.375 2.898 243.063 2.72 252.75 2.751 262.438 3.438 272.125 3.482 281.813 2.611 291.5 3.248 301.188 2.76 310.875 2.301 320.563 3.595 330.25 3.269 339.938 2.555 349.625 3.065 359.313 2.981 369 3 369.015 3 369.224 9.2 368.882 15.4 368.76 21.6 368.882 27.8 369 34 369 34.654 359.313 34.661 349.625 34.144 339.938 33.544 330.25 33.992 320.563 34.484 310.875 34.553 301.188 34.303 291.5 34.365 281.813 34.049 272.125 34.085 262.438 33.512 252.75 33.377 243.063 34.714 233.375 33.959 223.688 34.435 214 34 214.222 34 214.194 27.8 214.124 21.6 213.8 15.4 214.218 9.2 214 3" filter="url(#fs7o3f8)" style="stroke:#c85d0a;stroke-width:1.5"/><text x="221" y="23.09" fill="#FFF" font-family="Helvetica" font-size="17" lengthAdjust="spacingAndGlyphs" textLength="141">FormDataCompiler</text><polygon fill="#F18532" points="214 380.416 214 380.046 223.688 380.75 233.375 379.817 243.063 380.191 252.75 380.058 262.438 380.181 272.125 380.313 281.813 380.653 291.5 380.833 301.188 381.029 310.875 380.743 320.563 380.667 330.25 380.347 339.938 380.509 349.625 380.776 359.313 381.012 369 380.416 369.039 380.416 368.802 386.616 368.835 392.816 369.192 399.016 369.053 405.216 369 411.416 369 411.353 359.313 412.136 349.625 411.081 339.938 412.151 330.25 411.377 320.563 411.178 310.875 412.006 301.188 411.3 291.5 411.721 281.813 412.057 272.125 411.001 262.438 410.68 252.75 411.159 243.063 412.026 233.375 411.25 223.688 410.74 214 411.416 214.027 411.416 214.096 405.216 213.799 399.016 213.844 392.816 213.999 386.616 214 380.416" filter="url(#fs7o3f8)" style="stroke:#c85d0a;stroke-width:1.5"/><text x="221" y="400.506" fill="#FFF" font-family="Helvetica" font-size="17" lengthAdjust="spacingAndGlyphs" textLength="141">FormDataCompiler</text><polygon fill="#F18532" points="406 3 406 3.147 416.214 3.393 426.429 3.122 436.643 3.689 446.857 3.733 457.071 3.378 467.286 2.912 477.5 2.762 487.714 2.731 497.929 3.051 508.143 3.666 518.357 3.012 528.571 3.081 538.786 2.861 549 3 549.183 3 548.998 9.2 549.216 15.4 549.044 21.6 549.057 27.8 549 34 549 34.24 538.786 34.623 528.571 33.968 518.357 33.882 508.143 33.467 497.929 33.574 487.714 33.544 477.5 33.874 467.286 33.943 457.071 33.852 446.857 34.372 436.643 33.397 426.429 33.872 416.214 33.776 406 34 406.056 34 405.943 27.8 406.103 21.6 405.787 15.4 405.756 9.2 406 3" filter="url(#fs7o3f8)" style="stroke:#c85d0a;stroke-width:1.5"/><text x="413" y="23.09" fill="#FFF" font-family="Helvetica" font-size="17" lengthAdjust="spacingAndGlyphs" textLength="129">aFormDataGroup</text><polygon fill="#F18532" points="406 380.416 406 381.004 416.214 379.99 426.429 381.027 436.643 380.779 446.857 380.271 457.071 379.984 467.286 381.159 477.5 379.797 487.714 380.764 497.929 380.55 508.143 379.938 518.357 379.903 528.571 379.836 538.786 380.722 549 380.416 548.752 380.416 549.165 386.616 548.844 392.816 548.95 399.016 548.944 405.216 549 411.416 549 411.347 538.786 411.158 528.571 411.357 518.357 412.028 508.143 411.459 497.929 411.529 487.714 412.082 477.5 410.711 467.286 411.746 457.071 412.044 446.857 411.724 436.643 411.834 426.429 411.907 416.214 411.874 406 411.416 406.144 411.416 405.978 405.216 406.069 399.016 406.205 392.816 405.96 386.616 406 380.416" filter="url(#fs7o3f8)" style="stroke:#c85d0a;stroke-width:1.5"/><text x="413" y="400.506" fill="#FFF" font-family="Helvetica" font-size="17" lengthAdjust="spacingAndGlyphs" textLength="129">aFormDataGroup</text><polygon fill="#F18532" points="563 3 563 3.362 573 2.346 583 2.401 593 3.636 603 2.906 613 2.941 623 2.659 633 2.325 643 2.928 653 3.223 663 2.87 673 3 672.783 3 672.886 9.2 673.196 15.4 673.06 21.6 672.887 27.8 673 34 673 33.498 663 34.566 653 33.498 643 34.221 633 34.347 623 34.189 613 34.487 603 34.479 593 33.349 583 33.734 573 34.229 563 34 563.18 34 563.192 27.8 562.774 21.6 562.877 15.4 563.246 9.2 563 3" filter="url(#fs7o3f8)" style="stroke:#c85d0a;stroke-width:1.5"/><text x="570" y="23.09" fill="#FFF" font-family="Helvetica" font-size="17" lengthAdjust="spacingAndGlyphs" textLength="96">NodeFactory</text><polygon fill="#F18532" points="563 380.416 563 380.09 573 380.68 583 380.026 593 380.864 603 380.545 613 380.243 623 379.843 633 380.25 643 380.783 653 380.697 663 379.928 673 380.416 673.022 380.416 672.847 386.616 672.889 392.816 672.833 399.016 673.248 405.216 673 411.416 673 411.89 663 411.542 653 411.639 643 411.783 633 411.824 623 411.535 613 411.707 603 411.554 593 411.197 583 410.827 573 411.343 563 411.416 562.771 411.416 563.184 405.216 563.181 399.016 563.06 392.816 562.848 386.616 563 380.416" filter="url(#fs7o3f8)" style="stroke:#c85d0a;stroke-width:1.5"/><text x="570" y="400.506" fill="#FFF" font-family="Helvetica" font-size="17" lengthAdjust="spacingAndGlyphs" textLength="96">NodeFactory</text><polygon fill="#F18532" points="781 3 781 3.186 790.692 2.339 800.385 2.73 810.077 2.832 819.769 3.166 829.462 3.597 839.154 2.371 848.846 3.725 858.538 2.61 868.231 3.723 877.923 3.523 887.615 2.407 897.308 3.315 907 3 906.822 3 907.147 9.2 907.183 15.4 906.767 21.6 906.935 27.8 907 34 907 34.081 897.308 33.614 887.615 34.189 877.923 34.697 868.231 33.505 858.538 34.324 848.846 34.06 839.154 34.075 829.462 33.937 819.769 34.1 810.077 34.701 800.385 33.449 790.692 34.596 781 34 781.192 34 781.001 27.8 780.802 21.6 780.897 15.4 780.875 9.2 781 3" filter="url(#fs7o3f8)" style="stroke:#c85d0a;stroke-width:1.5"/><text x="788" y="23.09" fill="#FFF" font-family="Helvetica" font-size="17" lengthAdjust="spacingAndGlyphs" textLength="112">EntryContainer</text><polygon fill="#F18532" points="781 380.416 781 381.011 790.692 380.935 800.385 380.384 810.077 380.437 819.769 380.522 829.462 380.397 839.154 379.947 848.846 379.793 858.538 379.816 868.231 380.095 877.923 381.099 887.615 380.891 897.308 379.827 907 380.416 906.861 380.416 906.959 386.616 907.156 392.816 907.053 399.016 906.989 405.216 907 411.416 907 411.866 897.308 411.055 887.615 411.839 877.923 411.856 868.231 411.598 858.538 411.95 848.846 411.404 839.154 412.098 829.462 411.723 819.769 411.239 810.077 411.189 800.385 410.904 790.692 411.467 781 411.416 781.037 411.416 780.895 405.216 781.003 399.016 781.121 392.816 781.089 386.616 781 380.416" filter="url(#fs7o3f8)" style="stroke:#c85d0a;stroke-width:1.5"/><text x="788" y="400.506" fill="#FFF" font-family="Helvetica" font-size="17" lengthAdjust="spacingAndGlyphs" textLength="112">EntryContainer</text><polygon fill="#C85D0A" points="281.5 66 281.555 66.138 283.495 66.789 285.432 67.431 287.56 68.549 289.521 69.251 291.5 70 291.592 70.231 289.433 70.633 287.545 71.712 285.553 72.533 283.494 73.184 281.5 74 281.604 74.105 282.27 73.17 283.027 72.327 283.74 71.44 284.751 70.851 285.5 70 285.548 70.048 284.53 69.03 283.909 68.409 283.199 67.699 282.418 66.918 281.5 66" style="stroke:#c85d0a;stroke-width:1"/><path fill="none" d="M53.5,70 L53.5,69.2459 L63.6739,69.1272 L73.8478,69.385 L84.0217,69.3315 L94.1957,70.9991 L104.3696,69.9804 L114.5435,69.439 L124.7174,69.3817 L134.8913,70.8145 L145.0652,70.7582 L155.2391,69.7913 L165.413,70.069 L175.587,69.6228 L185.7609,70.3603 L195.9348,69.8209 L206.1087,69.681 L216.2826,69.9012 L226.4565,69.0973 L236.6304,69.0883 L246.8043,70.0885 L256.9783,69.7293 L267.1522,70.2139 L277.3261,69.046 L287.5,70" style="stroke:#c85d0a;stroke-width:1"/><text x="60.5" y="65.568" fill="#000" font-family="sans-serif" font-size="13" lengthAdjust="spacingAndGlyphs" textLength="164">Initialize aFormDataGroup</text><polygon fill="#C85D0A" points="467.5 95.311 467.535 95.397 469.542 96.215 471.503 96.919 473.523 97.769 475.467 98.428 477.5 99.311 477.454 99.197 475.499 100.108 473.52 100.96 471.592 101.941 469.46 102.41 467.5 103.311 467.396 103.207 468.329 102.54 469.015 101.626 469.782 100.792 470.695 100.106 471.5 99.311 471.489 99.3 470.636 98.447 469.967 97.777 469.189 96.999 468.402 96.213 467.5 95.311" style="stroke:#c85d0a;stroke-width:1"/><path fill="none" d="M293.5,99.3105 L293.5,99.5139 L303.5,99.2711 L313.5,98.68 L323.5,99.9474 L333.5,99.9269 L343.5,99.3825 L353.5,99.1853 L363.5,99.2827 L373.5,100.1353 L383.5,99.3514 L393.5,100.1223 L403.5,99.7607 L413.5,98.4206 L423.5,98.964 L433.5,98.433 L443.5,99.5851 L453.5,98.9926 L463.5,99.4586 L473.5,99.3105" style="stroke:#c85d0a;stroke-width:1"/><text x="300.5" y="94.879" fill="#000" font-family="sans-serif" font-size="13" lengthAdjust="spacingAndGlyphs" textLength="140">Prepare data providers</text><polygon fill="#C85D0A" points="304.5 124.621 304.553 124.752 302.465 125.333 300.448 126.092 298.455 126.908 296.453 127.704 294.5 128.621 294.492 128.601 296.481 129.375 298.526 130.286 300.521 131.073 302.45 131.696 304.5 132.621 304.348 132.469 303.774 131.895 302.894 131.015 302.126 130.247 301.372 129.493 300.5 128.621 300.343 128.464 301.148 127.669 302.041 126.962 302.974 126.295 303.872 125.593 304.5 124.621" style="stroke:#c85d0a;stroke-width:1"/><path fill="none" d="M298.5,128.6211 L298.5,129.3525 L308.5,127.7705 L318.5,129.3354 L328.5,129.4343 L338.5,129.0402 L348.5,127.778 L358.5,128.8763 L368.5,128.7959 L378.5,128.3463 L388.5,128.4147 L398.5,128.5561 L408.5,129.4797 L418.5,129.2623 L428.5,127.7916 L438.5,128.2921 L448.5,127.743 L458.5,127.6958 L468.5,129.2297 L478.5,128.6211" style="stroke:#c85d0a;stroke-width:1"/><text x="310.5" y="124.189" fill="#000" font-family="sans-serif" font-size="13" lengthAdjust="spacingAndGlyphs" textLength="104">Explode on error</text><polygon fill="#C85D0A" points="281.5 153.932 281.582 154.138 283.457 154.625 285.429 155.353 287.576 156.523 289.537 157.225 291.5 157.932 291.451 157.809 289.511 158.76 287.58 159.732 285.512 160.362 283.466 161.047 281.5 161.932 281.61 162.042 282.447 161.279 283.204 160.436 283.854 159.486 284.87 158.902 285.5 157.932 285.545 157.976 284.875 157.307 283.896 156.328 283.112 155.544 282.414 154.845 281.5 153.932" style="stroke:#c85d0a;stroke-width:1"/><path fill="none" d="M53.5,157.9316 L53.5,158.5606 L63.6739,157.9339 L73.8478,158.0139 L84.0217,157.0308 L94.1957,157.3566 L104.3696,158.2535 L114.5435,157.2464 L124.7174,157.5446 L134.8913,157.8006 L145.0652,157.0561 L155.2391,156.9713 L165.413,158.5528 L175.587,157.9839 L185.7609,158.2607 L195.9348,157.9091 L206.1087,158.4727 L216.2826,158.1727 L226.4565,158.0026 L236.6304,158.7407 L246.8043,158.057 L256.9783,157.2536 L267.1522,158.9079 L277.3261,157.7559 L287.5,157.9316" style="stroke:#c85d0a;stroke-width:1"/><text x="60.5" y="153.5" fill="#000" font-family="sans-serif" font-size="13" lengthAdjust="spacingAndGlyphs" textLength="216">Give initialized data, call compile()</text><polygon fill="#C85D0A" points="467.5 183.242 467.425 183.054 469.55 184.166 471.537 184.934 473.475 185.58 475.468 186.363 477.5 187.242 477.516 187.282 475.525 188.104 473.573 189.025 471.41 189.417 469.539 190.539 467.5 191.242 467.587 191.329 468.415 190.557 469.109 189.651 469.914 188.856 470.797 188.139 471.5 187.242 471.669 187.411 470.692 186.434 470.057 185.799 469.047 184.79 468.334 184.076 467.5 183.242" style="stroke:#c85d0a;stroke-width:1"/><path fill="none" d="M293.5,187.2422 L293.5,187.0403 L303.5,187.1861 L313.5,187.5539 L323.5,187.5755 L333.5,186.3417 L343.5,186.5153 L353.5,187.0992 L363.5,188.0604 L373.5,187.0434 L383.5,187.8678 L393.5,187.9743 L403.5,186.8525 L413.5,186.7898 L423.5,187.6941 L433.5,186.5761 L443.5,186.7844 L453.5,187.5738 L463.5,186.8559 L473.5,187.2422" style="stroke:#c85d0a;stroke-width:1"/><text x="300.5" y="182.81" fill="#000" font-family="sans-serif" font-size="13" lengthAdjust="spacingAndGlyphs" textLength="157">Compile single providers</text><polygon fill="#C85D0A" points="304.5 212.553 304.583 212.76 302.572 213.531 300.51 214.178 298.446 214.817 296.521 215.806 294.5 216.553 294.588 216.773 296.525 217.416 298.47 218.078 300.587 219.172 302.477 219.695 304.5 220.553 304.653 220.706 303.676 219.729 303.027 219.08 302.008 218.06 301.308 217.361 300.5 216.553 300.66 216.713 301.308 215.76 302.272 215.125 303.028 214.28 303.864 213.516 304.5 212.553" style="stroke:#c85d0a;stroke-width:1"/><path fill="none" d="M298.5,216.5527 L298.5,216.7571 L308.5,216.0459 L318.5,215.7622 L328.5,215.6184 L338.5,216.0358 L348.5,217.5426 L358.5,217.202 L368.5,216.2668 L378.5,216.8756 L388.5,215.7583 L398.5,215.7006 L408.5,217.1563 L418.5,217.2874 L428.5,216.5818 L438.5,216.4061 L448.5,217.3648 L458.5,216.9546 L468.5,216.4802 L478.5,216.5527" style="stroke:#c85d0a;stroke-width:1"/><text x="310.5" y="212.121" fill="#000" font-family="sans-serif" font-size="13" lengthAdjust="spacingAndGlyphs" textLength="162">Return updated data array</text><polygon fill="#C85D0A" points="64.5 241.863 64.582 242.07 62.527 242.73 60.484 243.424 58.475 244.2 56.459 244.961 54.5 245.863 54.441 245.717 56.45 246.538 58.472 247.394 60.447 248.13 62.574 249.249 64.5 249.863 64.657 250.02 63.84 249.204 63.014 248.377 62.09 247.453 61.358 246.722 60.5 245.863 60.471 245.834 61.224 244.987 61.967 244.13 62.738 243.301 63.682 242.645 64.5 241.863" style="stroke:#c85d0a;stroke-width:1"/><path fill="none" d="M58.5,245.8633 L58.5,246.6562 L68.6739,246.6028 L78.8478,246.8465 L89.0217,246.1918 L99.1957,245.5981 L109.3696,246.7693 L119.5435,246.8594 L129.7174,246.4268 L139.8913,246.3146 L150.0652,246.2732 L160.2391,245.5254 L170.413,245.6512 L180.587,245.5665 L190.7609,246.0838 L200.9348,245.4065 L211.1087,246.1635 L221.2826,246.0712 L231.4565,245.8837 L241.6304,245.7457 L251.8043,246.6254 L261.9783,245.5785 L272.1522,246.1812 L282.3261,246.3026 L292.5,245.8633" style="stroke:#c85d0a;stroke-width:1"/><text x="70.5" y="241.432" fill="#000" font-family="sans-serif" font-size="13" lengthAdjust="spacingAndGlyphs" textLength="132">Return full data arary</text><polygon fill="#C85D0A" points="608 271.174 607.982 271.13 609.989 271.946 612.036 272.863 614.084 273.785 615.916 274.164 618 275.174 617.995 275.162 616.004 275.983 614.043 276.882 611.953 277.456 610.092 278.603 608 279.174 608.067 279.241 608.938 278.512 609.473 277.447 610.542 276.916 611.349 276.123 612 275.174 611.894 275.068 611.203 274.377 610.368 273.542 609.495 272.669 608.886 272.06 608 271.174" style="stroke:#c85d0a;stroke-width:1"/><path fill="none" d="M53.5,275.1738 L53.5,274.5309 L63.5089,275.1012 L73.5179,274.6396 L83.5268,276.1185 L93.5357,274.4812 L103.5446,274.9961 L113.5536,275.7981 L123.5625,274.5151 L133.5714,275.5401 L143.5804,274.6865 L153.5893,274.9717 L163.5982,274.6432 L173.6071,274.7651 L183.6161,274.6824 L193.625,274.3212 L203.6339,274.3668 L213.6429,276.0571 L223.6518,275.9302 L233.6607,275.9625 L243.6696,276.1202 L253.6786,275.0988 L263.6875,274.7768 L273.6964,275.9776 L283.7054,275.7043 L293.7143,275.8394 L303.7232,275.1572 L313.7321,276.0265 L323.7411,275.0395 L333.75,276.0277 L343.7589,275.8035 L353.7679,275.8132 L363.7768,274.23 L373.7857,276.1001 L383.7946,275.5557 L393.8036,275.8098 L403.8125,274.6727 L413.8214,274.7191 L423.8304,274.8333 L433.8393,274.9753 L443.8482,276.0131 L453.8571,275.4366 L463.8661,275.9869 L473.875,274.7264 L483.8839,275.508 L493.8929,274.3203 L503.9018,275.5974 L513.9107,276.1273 L523.9196,274.7941 L533.9286,275.9358 L543.9375,275.831 L553.9464,276.1628 L563.9554,274.1971 L573.9643,274.8166 L583.9732,275.6795 L593.9821,275.0414 L603.9911,274.5312 L614,275.1738" style="stroke:#c85d0a;stroke-width:1"/><text x="60.5" y="270.742" fill="#000" font-family="sans-serif" font-size="13" lengthAdjust="spacingAndGlyphs" textLength="138">Receive full data array</text><polygon fill="#C85D0A" points="834 300.484 834.028 300.555 835.922 301.088 838.053 302.217 839.97 302.808 842.092 303.915 844 304.484 844.077 304.676 842.032 305.365 840.056 306.223 838.056 307.024 835.926 307.5 834 308.484 833.896 308.38 834.944 307.829 835.743 307.027 836.42 306.105 837.044 305.129 838 304.484 838.135 304.62 837.193 303.678 836.24 302.724 835.543 302.028 834.961 301.446 834 300.484" style="stroke:#c85d0a;stroke-width:1"/><path fill="none" d="M620,304.4844 L620,304.8415 L630,305.1059 L640,305.3509 L650,304.4201 L660,303.8299 L670,303.5475 L680,303.9742 L690,305.1675 L700,304.654 L710,305.2004 L720,303.4909 L730,303.7006 L740,304.1926 L750,303.7693 L760,303.8812 L770,304.6373 L780,304.4797 L790,304.1281 L800,303.9034 L810,304.7575 L820,304.6432 L830,303.5568 L840,304.4844" style="stroke:#c85d0a;stroke-width:1"/><text x="627" y="300.053" fill="#000" font-family="sans-serif" font-size="13" lengthAdjust="spacingAndGlyphs" textLength="171">Render self, sub containers</text><polygon fill="#C85D0A" points="631 329.795 631.045 329.907 628.973 330.528 626.946 331.26 624.918 331.99 622.975 332.931 621 333.795 621.012 333.825 622.996 334.586 625.083 335.602 626.943 336.052 629.003 337.003 631 337.795 631.156 337.95 630.194 336.989 629.452 336.247 628.742 335.537 627.959 334.754 627 333.795 627.014 333.809 627.656 332.851 628.459 332.054 629.47 331.464 630.12 330.515 631 329.795" style="stroke:#c85d0a;stroke-width:1"/><path fill="none" d="M625,333.7949 L625,334.4056 L635,334.6618 L645,333.8361 L655,334.5549 L665,334.3377 L675,334.6581 L685,334.5145 L695,332.9395 L705,333.9535 L715,333.3248 L725,334.1775 L735,333.6797 L745,334.7908 L755,334.5417 L765,333.0711 L775,333.8258 L785,334.2678 L795,333.1098 L805,334.2654 L815,334.6951 L825,333.5921 L835,334.1933 L845,333.7949" style="stroke:#c85d0a;stroke-width:1"/><text x="637" y="329.363" fill="#000" font-family="sans-serif" font-size="13" lengthAdjust="spacingAndGlyphs" textLength="202">Return result with HTML, CSS, JS</text><polygon fill="#C85D0A" points="64.5 359.106 64.552 359.236 62.543 360.013 60.546 360.821 58.586 361.72 56.449 362.178 54.5 363.106 54.497 363.098 56.426 363.721 58.542 364.81 60.533 365.588 62.432 366.135 64.5 367.106 64.66 367.266 63.588 366.194 62.831 365.437 61.962 364.568 61.411 364.016 60.5 363.106 60.37 362.975 61.385 362.39 61.962 361.368 62.994 360.8 63.695 359.901 64.5 359.106" style="stroke:#c85d0a;stroke-width:1"/><path fill="none" d="M58.5,363.1055 L58.5,363.0318 L68.5089,364.1033 L78.5179,362.5972 L88.5268,363.4021 L98.5357,363.4905 L108.5446,362.1499 L118.5536,362.6606 L128.5625,363.4097 L138.5714,362.7405 L148.5804,363.6489 L158.5893,363.3906 L168.5982,362.1224 L178.6071,362.4533 L188.6161,363.1347 L198.625,362.6954 L208.6339,362.7489 L218.6429,363.4701 L228.6518,363.2076 L238.6607,363.7226 L248.6696,362.7924 L258.6786,363.6365 L268.6875,362.3108 L278.6964,363.4432 L288.7054,362.1708 L298.7143,363.9398 L308.7232,363.9999 L318.7321,363.8365 L328.7411,362.9934 L338.75,362.8117 L348.7589,363.2373 L358.7679,363.037 L368.7768,363.8306 L378.7857,362.7623 L388.7946,364.0265 L398.8036,363.459 L408.8125,363.1974 L418.8214,363.9994 L428.8304,363.1789 L438.8393,362.7422 L448.8482,363.5348 L458.8571,362.3677 L468.8661,363.1672 L478.875,363.387 L488.8839,362.2337 L498.8929,363.806 L508.9018,362.8678 L518.9107,362.1556 L528.9196,362.1867 L538.9286,362.5727 L548.9375,362.5337 L558.9464,362.7109 L568.9554,362.9843 L578.9643,363.7321 L588.9732,362.5626 L598.9821,362.552 L608.9911,363.1911 L619,363.1055" style="stroke:#c85d0a;stroke-width:1"/><text x="70.5" y="358.674" fill="#000" font-family="sans-serif" font-size="13" lengthAdjust="spacingAndGlyphs" textLength="116">Return result array</text></g></svg>