<svg xmlns="http://www.w3.org/2000/svg" xmlns:xlink="http://www.w3.org/1999/xlink" width="1392" height="151" contentScriptType="application/ecmascript" contentStyleType="text/css" style="width:1392px;height:151px" preserveAspectRatio="none" version="1.1" viewBox="0 0 1392 151" zoomAndPan="magnify"><defs><filter id="fppxgmf" width="300%" height="300%" x="-1" y="-1"><feGaussianBlur result="blurOut" stdDeviation="2"/><feColorMatrix in="blurOut" result="blurOut2" type="matrix" values="0 0 0 0 0 0 0 0 0 0 0 0 0 0 0 0 0 0 .4 0"/><feOffset dx="4" dy="4" in="blurOut2" result="blurOut3"/><feBlend in="SourceGraphic" in2="blurOut3" mode="normal"/></filter></defs><g><ellipse cx="742.466" cy="17" fill="#FEFECE" filter="url(#fppxgmf)" rx="8" ry="8" style="stroke:#a80036;stroke-width:2"/><text x="687.466" y="38.995" fill="#000" font-family="sans-serif" font-size="14" lengthAdjust="spacingAndGlyphs" textLength="110">FormDataGroup</text><ellipse cx="122.716" cy="129" fill="#FEFECE" filter="url(#fppxgmf)" rx="8" ry="8" style="stroke:#a80036;stroke-width:2"/><text x="64.216" y="150.995" fill="#000" font-family="sans-serif" font-size="14" lengthAdjust="spacingAndGlyphs" textLength="117">FirstDataProvider</text><ellipse cx="518.716" cy="129" fill="#FEFECE" filter="url(#fppxgmf)" rx="8" ry="8" style="stroke:#a80036;stroke-width:2"/><text x="448.216" y="150.995" fill="#000" font-family="sans-serif" font-size="14" lengthAdjust="spacingAndGlyphs" textLength="141">SecondDataProvider</text><ellipse cx="993.466" cy="129" fill="#FEFECE" filter="url(#fppxgmf)" rx="8" ry="8" style="stroke:#a80036;stroke-width:2"/><text x="987.466" y="150.995" fill="#000" font-family="sans-serif" font-size="14" lengthAdjust="spacingAndGlyphs" textLength="12">...</text><ellipse cx="1309.97" cy="129" fill="#FEFECE" filter="url(#fppxgmf)" rx="8" ry="8" style="stroke:#a80036;stroke-width:2"/><text x="1251.97" y="150.995" fill="#000" font-family="sans-serif" font-size="14" lengthAdjust="spacingAndGlyphs" textLength="116">LastDataProvider</text><path fill="none" d="M687.226,27.435 C521.012,32.021 35.5014,47.468 12.4665,72 C-5.2125,90.828 16.1888,105.8056 44.6668,116.5235" style="stroke:#a80036;stroke-width:1"/><polygon fill="none" points="47.279 110.015 64.063 122.949 42.877 123.305 47.279 110.015" style="stroke:#a80036;stroke-width:1"/><text x="13.466" y="85.067" fill="#000" font-family="sans-serif" font-size="13" lengthAdjust="spacingAndGlyphs" textLength="171">addData($initialDataArray)</text><path fill="none" d="M667.208,29.725 C549.737,36.103 328.382,50.536 252.466,72 C214.219,82.8138 173.664,104.6582 148.218,119.7981" style="stroke:#a80036;stroke-width:1"/><polygon fill="none" points="666.847 22.735 687.19 28.664 667.59 36.715 666.847 22.735" style="stroke:#a80036;stroke-width:1"/><text x="253.466" y="85.067" fill="#000" font-family="sans-serif" font-size="13" lengthAdjust="spacingAndGlyphs" textLength="128">$modifiedDataArray</text><path fill="none" d="M687.439,29.414 C594.883,35.722 416.249,50.547 397.466,72 C380.177,91.7476 400.328,106.3682 428.831,116.61" style="stroke:#a80036;stroke-width:1"/><polygon fill="none" points="430.921 109.929 447.925 122.573 426.748 123.293 430.921 109.929" style="stroke:#a80036;stroke-width:1"/><text x="398.466" y="85.067" fill="#000" font-family="sans-serif" font-size="13" lengthAdjust="spacingAndGlyphs" textLength="193">addData($modifiedDataArray)</text><path fill="none" d="M682.986,49.726 C666.766,56.5679 649.304,64.2793 633.466,72 C602.659,87.0184 568.472,106.4097 545.443,119.8934" style="stroke:#a80036;stroke-width:1"/><polygon fill="none" points="680.466 43.194 701.622 42.009 685.822 56.129 680.466 43.194" style="stroke:#a80036;stroke-width:1"/><text x="634.466" y="85.067" fill="#000" font-family="sans-serif" font-size="13" lengthAdjust="spacingAndGlyphs" textLength="169">$furtherModifiedDataArray</text><path fill="none" d="M764.843,42.242 C785.101,56.3661 816.17,76.6115 845.466,90 C885.249,108.1805 934.184,121.82 964.607,129.3548" style="stroke:#a80036;stroke-width:1"/><polygon fill="none" points="966.307 122.564 984.159 133.98 963.084 136.188 966.307 122.564" style="stroke:#a80036;stroke-width:1"/><text x="846.466" y="85.067" fill="#000" font-family="sans-serif" font-size="13" lengthAdjust="spacingAndGlyphs" textLength="247">addData($furtherMmodifiedDataArray)</text><path fill="none" d="M817.615,30.462 C916.826,37.133 1081.17,51.19 1099.47,72 C1130.13,106.8683 1033.59,128.4588 1002.667,134.3546" style="stroke:#a80036;stroke-width:1"/><polygon fill="none" points="817.011 37.438 797.509 29.151 817.922 23.468 817.011 37.438" style="stroke:#a80036;stroke-width:1"/><text x="1106.47" y="85.067" fill="#000" font-family="sans-serif" font-size="13" lengthAdjust="spacingAndGlyphs" textLength="71">$dataArray</text><path fill="none" d="M797.54,25.072 C882.928,25.093 1051.58,30.995 1187.47,72 C1215.87,80.5717 1245.4,95.8648 1268.29,109.3522" style="stroke:#a80036;stroke-width:1"/><polygon fill="none" points="1272.02 103.432 1285.42 119.844 1264.71 115.372 1272.02 103.432" style="stroke:#a80036;stroke-width:1"/><text x="1231.47" y="85.067" fill="#000" font-family="sans-serif" font-size="13" lengthAdjust="spacingAndGlyphs" textLength="71">$dataArray</text><path fill="none" d="M817.745,26.522 C964.97,28.328 1279.59,36.363 1312.47,72 C1324.16,84.6722 1320.59,105.4611 1315.96,119.8923" style="stroke:#a80036;stroke-width:1"/><polygon fill="none" points="817.632 33.521 797.71 26.302 817.786 19.522 817.632 33.521" style="stroke:#a80036;stroke-width:1"/><text x="1320.47" y="85.067" fill="#000" font-family="sans-serif" font-size="13" lengthAdjust="spacingAndGlyphs" textLength="71">$dataArray</text></g></svg>